<svg id="Layer_1" data-name="Layer 1" xmlns="http://www.w3.org/2000/svg" viewBox="0 0 86.51 9.58"><defs><style>.cls-1{fill:#d8183b;}</style></defs><path class="cls-1" d="M261.6,271.5l.66,0h2.62a3.32,3.32,0,0,1,2.17.6,1.85,1.85,0,0,1,.72,1.48,2.47,2.47,0,0,1-.14.77,2.26,2.26,0,0,1-.5.77,2.62,2.62,0,0,1-1,.59,4.28,4.28,0,0,1-1.55.24h-1.15v-.24h1a2.59,2.59,0,0,0,1.31-.27,1.37,1.37,0,0,0,.61-.72,2.91,2.91,0,0,0,.16-1,2.15,2.15,0,0,0-.45-1.47,1.93,1.93,0,0,0-1.54-.53.91.91,0,0,0-.72.21,1.4,1.4,0,0,0-.17.83v6a2.16,2.16,0,0,0,.07.65.41.41,0,0,0,.28.28,2.57,2.57,0,0,0,.62.1V280a6.47,6.47,0,0,0-.69,0h-1.71a5.86,5.86,0,0,0-.66,0v-.24a2.57,2.57,0,0,0,.62-.1.41.41,0,0,0,.28-.28,2.16,2.16,0,0,0,.07-.65v-6a2.15,2.15,0,0,0-.07-.66.47.47,0,0,0-.28-.29,2.21,2.21,0,0,0-.62-.09Zm1.91,4.26,1,.06.61.05.45.06a2.05,2.05,0,0,1,1.15.49,2.22,2.22,0,0,1,.53,1.1l.3,1.22a3.41,3.41,0,0,0,.24.76.39.39,0,0,0,.39.22.49.49,0,0,0,.34-.13,2.38,2.38,0,0,0,.3-.32l.18.13a2.25,2.25,0,0,1-.52.57,1.31,1.31,0,0,1-.77.2,1.23,1.23,0,0,1-.78-.27,1.76,1.76,0,0,1-.5-1l-.26-1.2a8.35,8.35,0,0,0-.25-.89,1.51,1.51,0,0,0-.38-.6,1.11,1.11,0,0,0-.73-.21h-1.3Z" transform="translate(-256.29 -270.59)"/><path class="cls-1" d="M272.14,273.65a2.18,2.18,0,0,1,1.65.64,2.91,2.91,0,0,1,.59,2h-4.23l0-.23h3.1a3.75,3.75,0,0,0-.1-1.08,1.92,1.92,0,0,0-.37-.8.86.86,0,0,0-.67-.3,1.23,1.23,0,0,0-1,.55,3.34,3.34,0,0,0-.51,1.75l0,.05c0,.12,0,.25,0,.4s0,.29,0,.43a3.5,3.5,0,0,0,.26,1.4,2.23,2.23,0,0,0,.69.9,1.54,1.54,0,0,0,.89.3,1.88,1.88,0,0,0,1-.26,2,2,0,0,0,.77-.94l.24.1a2.58,2.58,0,0,1-.43.77,2.16,2.16,0,0,1-.76.6,2.2,2.2,0,0,1-1.05.24,2.68,2.68,0,0,1-1.49-.4,2.54,2.54,0,0,1-.94-1.1,3.7,3.7,0,0,1-.33-1.61,4.59,4.59,0,0,1,.33-1.82,2.65,2.65,0,0,1,.95-1.17A2.46,2.46,0,0,1,272.14,273.65Z" transform="translate(-256.29 -270.59)"/><path class="cls-1" d="M279.33,273.65a2.13,2.13,0,0,1,.76.12,1.39,1.39,0,0,1,.51.34,1.34,1.34,0,0,1,.32.6,3.6,3.6,0,0,1,.1,1v3.2a.89.89,0,0,0,.21.69,1.07,1.07,0,0,0,.7.18V280l-.62,0-.82,0-.77,0-.57,0v-.25a.86.86,0,0,0,.61-.18,1,1,0,0,0,.18-.69v-3.46a3.69,3.69,0,0,0-.06-.69.88.88,0,0,0-.27-.5A.92.92,0,0,0,279,274a1.44,1.44,0,0,0-1.22.63,2.52,2.52,0,0,0-.46,1.55v2.66a1,1,0,0,0,.18.69.84.84,0,0,0,.61.18V280l-.57,0-.78,0-.81,0-.63,0v-.25a1.1,1.1,0,0,0,.71-.18.89.89,0,0,0,.21-.69v-3.75a1.32,1.32,0,0,0-.2-.8.83.83,0,0,0-.72-.26v-.25c.26,0,.51,0,.75,0a4.65,4.65,0,0,0,.66-.05,3.23,3.23,0,0,0,.59-.12v1.41a2,2,0,0,1,.87-1.13A2.34,2.34,0,0,1,279.33,273.65Z" transform="translate(-256.29 -270.59)"/><path class="cls-1" d="M285.4,273.65a2.14,2.14,0,0,1,1,.25,1.31,1.31,0,0,1,.62.87l-.16.12a1.32,1.32,0,0,0-.52-.73,1.47,1.47,0,0,0-.84-.23,1.38,1.38,0,0,0-1.18.73,4.22,4.22,0,0,0-.46,2.26,5.68,5.68,0,0,0,.19,1.61,1.87,1.87,0,0,0,.55,1,1.31,1.31,0,0,0,.89.32,1.24,1.24,0,0,0,.91-.43,2.12,2.12,0,0,0,.5-1.28l.14.17a2.29,2.29,0,0,1-.58,1.41,1.81,1.81,0,0,1-1.32.49,2.35,2.35,0,0,1-1.3-.36,2.28,2.28,0,0,1-.85-1.08,4.77,4.77,0,0,1-.29-1.81,3.93,3.93,0,0,1,.37-1.82,2.66,2.66,0,0,1,1-1.09A2.61,2.61,0,0,1,285.4,273.65Zm2.52-3.06v8.1a1.26,1.26,0,0,0,.2.8.85.85,0,0,0,.71.26V280c-.25,0-.5,0-.74,0s-.46,0-.67,0a2.47,2.47,0,0,0-.58.13V272a1.43,1.43,0,0,0-.19-.8.86.86,0,0,0-.72-.25v-.26a6.23,6.23,0,0,0,.74,0,4.92,4.92,0,0,0,.67,0A3.29,3.29,0,0,0,287.92,270.59Z" transform="translate(-256.29 -270.59)"/><path class="cls-1" d="M292.35,273.65a2.18,2.18,0,0,1,1.65.64,2.91,2.91,0,0,1,.59,2h-4.24v-.23h3.1a4.13,4.13,0,0,0-.1-1.08,1.92,1.92,0,0,0-.38-.8.83.83,0,0,0-.66-.3,1.21,1.21,0,0,0-1,.55,3.25,3.25,0,0,0-.51,1.75l0,.05c0,.12,0,.25,0,.4s0,.29,0,.43a3.33,3.33,0,0,0,.26,1.4,2.23,2.23,0,0,0,.69.9,1.53,1.53,0,0,0,.88.3,1.94,1.94,0,0,0,1-.26,2.07,2.07,0,0,0,.77-.94l.24.1a2.83,2.83,0,0,1-.43.77,2.35,2.35,0,0,1-.76.6,2.24,2.24,0,0,1-1.06.24,2.64,2.64,0,0,1-1.48-.4,2.56,2.56,0,0,1-1-1.1,3.7,3.7,0,0,1-.33-1.61,4.58,4.58,0,0,1,.34-1.82,2.59,2.59,0,0,1,.95-1.17A2.46,2.46,0,0,1,292.35,273.65Z" transform="translate(-256.29 -270.59)"/><path class="cls-1" d="M299.23,273.65a1.26,1.26,0,0,1,.57.13,1,1,0,0,1,.39.35.85.85,0,0,1-.05,1,.61.61,0,0,1-.5.23.66.66,0,0,1-.44-.17.55.55,0,0,1-.19-.46.65.65,0,0,1,.12-.39,1.35,1.35,0,0,1,.28-.26.28.28,0,0,0-.25-.12,1.18,1.18,0,0,0-.87.38,2.7,2.7,0,0,0-.59.91,2.62,2.62,0,0,0-.21,1v2.54a.83.83,0,0,0,.35.79,1.84,1.84,0,0,0,.93.2V280l-.78,0-1.07,0-.81,0-.61,0v-.25a1.07,1.07,0,0,0,.7-.18.89.89,0,0,0,.21-.69v-3.75a1.33,1.33,0,0,0-.19-.8.86.86,0,0,0-.72-.26v-.25c.26,0,.51,0,.75,0a4.65,4.65,0,0,0,.66-.05,3.12,3.12,0,0,0,.58-.12v1.5a3.45,3.45,0,0,1,.38-.7,2.28,2.28,0,0,1,.6-.6A1.29,1.29,0,0,1,299.23,273.65Z" transform="translate(-256.29 -270.59)"/><path class="cls-1" d="M306.3,271.37a2.37,2.37,0,0,1,.91.14,3,3,0,0,1,.56.31l.23.12a.38.38,0,0,0,.17,0c.13,0,.22-.17.27-.52h.27c0,.13,0,.29,0,.48s0,.44,0,.75,0,.71,0,1.21h-.27a3.74,3.74,0,0,0-.25-1.1,2.21,2.21,0,0,0-.63-.86,1.65,1.65,0,0,0-1.09-.34,1.49,1.49,0,0,0-1.05.38,1.32,1.32,0,0,0-.42,1,1.51,1.51,0,0,0,.28.91,2.83,2.83,0,0,0,.74.66l1,.63a10.67,10.67,0,0,1,1.11.76,3.15,3.15,0,0,1,.77.83,2.08,2.08,0,0,1,.28,1.11,2.21,2.21,0,0,1-.35,1.27,2.14,2.14,0,0,1-.92.76,3.31,3.31,0,0,1-1.27.25,2.76,2.76,0,0,1-1-.15,3.48,3.48,0,0,1-.64-.3.83.83,0,0,0-.41-.16c-.12,0-.21.17-.26.52H304c0-.16,0-.36,0-.59s0-.53,0-.89v-1.4h.28a4.9,4.9,0,0,0,.27,1.35,2.32,2.32,0,0,0,.68,1,1.9,1.9,0,0,0,1.23.38,1.76,1.76,0,0,0,1.08-.38,1.46,1.46,0,0,0,.48-1.22,1.59,1.59,0,0,0-.51-1.21,8.14,8.14,0,0,0-1.36-1c-.38-.24-.73-.47-1.05-.71a3,3,0,0,1-.79-.84,2.31,2.31,0,0,1,0-2.31,1.89,1.89,0,0,1,.84-.69A2.88,2.88,0,0,1,306.3,271.37Z" transform="translate(-256.29 -270.59)"/><path class="cls-1" d="M312,271.83v2h1.78v.24H312v4.65a1.23,1.23,0,0,0,.2.79.75.75,0,0,0,.57.23.79.79,0,0,0,.62-.3,2.4,2.4,0,0,0,.46-1l.24.06a2.68,2.68,0,0,1-.48,1.18,1.25,1.25,0,0,1-1.08.48,2.06,2.06,0,0,1-.67-.1,1.35,1.35,0,0,1-.47-.3,1.44,1.44,0,0,1-.37-.66,4,4,0,0,1-.1-1v-4h-1.15v-.24h1.15V272l.57-.05A3.19,3.19,0,0,0,312,271.83Z" transform="translate(-256.29 -270.59)"/><path class="cls-1" d="M319.75,273.69v5a1.32,1.32,0,0,0,.2.8.86.86,0,0,0,.72.26V280l-.75,0c-.23,0-.45,0-.67,0a3.29,3.29,0,0,0-.58.13v-1.41a2.14,2.14,0,0,1-.84,1.11,2.16,2.16,0,0,1-1.12.33,2,2,0,0,1-.74-.12,1.31,1.31,0,0,1-.51-.34,1.26,1.26,0,0,1-.31-.62,4.25,4.25,0,0,1-.09-.95v-3a1.33,1.33,0,0,0-.19-.8.86.86,0,0,0-.72-.26v-.25c.25,0,.5,0,.74,0a4.68,4.68,0,0,0,.67-.05,3.3,3.3,0,0,0,.58-.12v4.71a4.86,4.86,0,0,0,.05.69.84.84,0,0,0,.24.5.85.85,0,0,0,.62.19,1.4,1.4,0,0,0,1.17-.63,2.57,2.57,0,0,0,.45-1.54v-2.48a1.33,1.33,0,0,0-.19-.8.86.86,0,0,0-.72-.26v-.25c.26,0,.51,0,.74,0a4.68,4.68,0,0,0,.67-.05A3.12,3.12,0,0,0,319.75,273.69Z" transform="translate(-256.29 -270.59)"/><path class="cls-1" d="M324.22,273.65a2.14,2.14,0,0,1,1,.25,1.3,1.3,0,0,1,.61.87l-.15.12a1.32,1.32,0,0,0-.52-.73,1.47,1.47,0,0,0-.84-.23,1.38,1.38,0,0,0-1.18.73,4.13,4.13,0,0,0-.46,2.26,6.11,6.11,0,0,0,.18,1.61,2,2,0,0,0,.56,1,1.31,1.31,0,0,0,.89.32,1.24,1.24,0,0,0,.91-.43,2.11,2.11,0,0,0,.49-1.28l.15.17a2.34,2.34,0,0,1-.58,1.41,1.82,1.82,0,0,1-1.32.49,2.35,2.35,0,0,1-1.3-.36,2.22,2.22,0,0,1-.85-1.08,4.76,4.76,0,0,1-.3-1.81,3.93,3.93,0,0,1,.38-1.82,2.57,2.57,0,0,1,2.34-1.45Zm2.52-3.06v8.1a1.33,1.33,0,0,0,.19.8.87.87,0,0,0,.72.26V280c-.25,0-.5,0-.75,0s-.45,0-.66,0a2.47,2.47,0,0,0-.58.13V272a1.35,1.35,0,0,0-.2-.8.83.83,0,0,0-.72-.25v-.26a6.51,6.51,0,0,0,.75,0,4.68,4.68,0,0,0,.66,0A3.21,3.21,0,0,0,326.74,270.59Z" transform="translate(-256.29 -270.59)"/><path class="cls-1" d="M330.24,273.69v5.19a.89.89,0,0,0,.21.69,1.07,1.07,0,0,0,.7.18V280l-.62,0-.83,0-.83,0-.62,0v-.25a1.07,1.07,0,0,0,.7-.18.89.89,0,0,0,.21-.69v-3.75a1.33,1.33,0,0,0-.19-.8.86.86,0,0,0-.72-.26v-.25c.25,0,.5,0,.74,0a4.8,4.8,0,0,0,.67-.05A3.3,3.3,0,0,0,330.24,273.69Zm-.62-2.87a.78.78,0,0,1,.54.23.77.77,0,0,1,0,1.08.78.78,0,0,1-.54.23.74.74,0,0,1-.54-.23.75.75,0,0,1,0-1.08A.74.74,0,0,1,329.62,270.82Z" transform="translate(-256.29 -270.59)"/><path class="cls-1" d="M334.71,273.65a2.7,2.7,0,0,1,1.37.34,2.33,2.33,0,0,1,1,1.05,4.08,4.08,0,0,1,.37,1.88,4,4,0,0,1-.37,1.86,2.33,2.33,0,0,1-1,1.05,2.7,2.7,0,0,1-1.37.34,2.77,2.77,0,0,1-1.38-.34,2.33,2.33,0,0,1-1-1.05,4,4,0,0,1-.37-1.86,4.08,4.08,0,0,1,.37-1.88,2.33,2.33,0,0,1,1-1.05A2.77,2.77,0,0,1,334.71,273.65Zm0,.24a1.32,1.32,0,0,0-1.13.71,6.45,6.45,0,0,0,0,4.63,1.25,1.25,0,0,0,2.25,0,6.31,6.31,0,0,0,0-4.63A1.31,1.31,0,0,0,334.71,273.89Z" transform="translate(-256.29 -270.59)"/><path class="cls-1" d="M340.49,273.65a1.8,1.8,0,0,1,.81.16,2.13,2.13,0,0,1,.5.29c.26.21.42.07.48-.44h.27c0,.23,0,.49,0,.8s0,.72,0,1.24h-.27a3.83,3.83,0,0,0-.25-.86,1.6,1.6,0,0,0-.51-.69,1.33,1.33,0,0,0-.87-.27,1.12,1.12,0,0,0-.71.23.88.88,0,0,0-.28.69.91.91,0,0,0,.22.62,2.46,2.46,0,0,0,.56.48l.76.49a7.53,7.53,0,0,1,1.16.9,1.57,1.57,0,0,1,.48,1.2,1.41,1.41,0,0,1-.29.92,1.79,1.79,0,0,1-.75.57,2.71,2.71,0,0,1-1,.19,3.9,3.9,0,0,1-.5,0,2.54,2.54,0,0,1-.45-.13l-.24-.14-.25-.18a.14.14,0,0,0-.22,0,.82.82,0,0,0-.14.4h-.28c0-.25,0-.56,0-.93s0-.86,0-1.47H339a6,6,0,0,0,.24,1.18,1.62,1.62,0,0,0,.49.79,1.46,1.46,0,0,0,.94.28,1.28,1.28,0,0,0,.71-.25,1,1,0,0,0,.35-.89,1.1,1.1,0,0,0-.38-.87,7.94,7.94,0,0,0-1-.7c-.29-.19-.56-.37-.81-.56A2.39,2.39,0,0,1,339,276a1.48,1.48,0,0,1,.66-2.23A2.55,2.55,0,0,1,340.49,273.65Z" transform="translate(-256.29 -270.59)"/><path class="cls-1" d="M258.6,277.94A3.73,3.73,0,0,0,258,279c-.07.27-.14.42,0,.54a1.39,1.39,0,0,0,.78.19l-.06.26c-.25,0-.5,0-.76,0h-1.29a3,3,0,0,0-.43,0l.06-.26a1.58,1.58,0,0,0,.59-.32,4.39,4.39,0,0,0,.72-.81l5.16-6.95h.59l.52,7.25a.93.93,0,0,0,.25.64.71.71,0,0,0,.4.21l-.05.2a6.19,6.19,0,0,0-.67,0l-.78,0-.88,0a5.1,5.1,0,0,0-.68.08l.05-.26a1.56,1.56,0,0,0,.89-.23c.18-.13.26-.42.24-.86l0-6.49v.09Zm.93-1.69h3.72l-.1.26h-3.86Z" transform="translate(-256.29 -270.59)"/></svg>